name rise30.2954peak35.7071fall66.7804.mot
datacolumns 19
datarows 21
range 9.78830200000000 9.82163100000000
endheader
time	ground_force1_vx	ground_force1_vy	ground_force1_vz	ground_force1_px	ground_force1_py	ground_force1_pz	ground_force2_vx	ground_force2_vy	ground_force2_vz	ground_force2_px	ground_force2_py	ground_force2_pz	ground_torque1_x	ground_torque1_y	ground_torque1_z	ground_torque2_x	ground_torque2_y	ground_torque2_z	
9.78830200000000	18.18309400000000	698.48003600000004	35.35388900000000	0.26159800000000	0.00000000000000	0.12131200000000	0.00000000000000	0.00000000000000	0.00000000000000	0.00000000000000	0.00000000000000	0.00000000000000	0.00000000000000	14.14056500000000	0.00000000000000	0.00000000000000	0.00000000000000	0.00000000000000	
9.78997300000000	17.68031300000000	698.82874800000002	35.37425100000000	0.26087100000000	0.00000000000000	0.12132300000000	0.00000000000000	0.00000000000000	0.00000000000000	0.00000000000000	0.00000000000000	0.00000000000000	0.00000000000000	14.24068200000000	0.00000000000000	0.00000000000000	0.00000000000000	0.00000000000000	
9.79163500000000	17.16154700000000	699.20625900000005	35.40150400000000	0.26010900000000	0.00000000000000	0.12133600000000	0.00000000000000	0.00000000000000	0.00000000000000	0.00000000000000	0.00000000000000	0.00000000000000	0.00000000000000	14.34661600000000	0.00000000000000	0.00000000000000	0.00000000000000	0.00000000000000	
9.79330200000000	16.62658500000000	699.61279500000001	35.43548600000000	0.25931100000000	0.00000000000000	0.12135300000000	0.00000000000000	0.00000000000000	0.00000000000000	0.00000000000000	0.00000000000000	0.00000000000000	0.00000000000000	14.45823600000000	0.00000000000000	0.00000000000000	0.00000000000000	0.00000000000000	
9.79497000000000	16.07525700000000	700.04866000000004	35.47602300000000	0.25847600000000	0.00000000000000	0.12137200000000	0.00000000000000	0.00000000000000	0.00000000000000	0.00000000000000	0.00000000000000	0.00000000000000	0.00000000000000	14.57540300000000	0.00000000000000	0.00000000000000	0.00000000000000	0.00000000000000	
9.79663000000000	15.50743600000000	700.51423299999999	35.52293000000000	0.25760300000000	0.00000000000000	0.12139400000000	0.00000000000000	0.00000000000000	0.00000000000000	0.00000000000000	0.00000000000000	0.00000000000000	0.00000000000000	14.69797100000000	0.00000000000000	0.00000000000000	0.00000000000000	0.00000000000000	
9.79830000000000	14.92303400000000	701.00996099999998	35.57600900000000	0.25669100000000	0.00000000000000	0.12141900000000	0.00000000000000	0.00000000000000	0.00000000000000	0.00000000000000	0.00000000000000	0.00000000000000	0.00000000000000	14.82578700000000	0.00000000000000	0.00000000000000	0.00000000000000	0.00000000000000	
9.79996900000000	14.32201000000000	701.53635899999995	35.63505400000000	0.25574000000000	0.00000000000000	0.12144700000000	0.00000000000000	0.00000000000000	0.00000000000000	0.00000000000000	0.00000000000000	0.00000000000000	0.00000000000000	14.95869300000000	0.00000000000000	0.00000000000000	0.00000000000000	0.00000000000000	
9.80163800000000	13.70436400000000	702.09400300000004	35.69984500000000	0.25475000000000	0.00000000000000	0.12147800000000	0.00000000000000	0.00000000000000	0.00000000000000	0.00000000000000	0.00000000000000	0.00000000000000	0.00000000000000	15.09652300000000	0.00000000000000	0.00000000000000	0.00000000000000	0.00000000000000	
9.80329600000000	13.07014100000000	702.68352500000003	35.77015400000000	0.25372100000000	0.00000000000000	0.12151100000000	0.00000000000000	0.00000000000000	0.00000000000000	0.00000000000000	0.00000000000000	0.00000000000000	0.00000000000000	15.23910600000000	0.00000000000000	0.00000000000000	0.00000000000000	0.00000000000000	
9.80497100000000	12.41942900000000	703.30560700000001	35.84574200000000	0.25265200000000	0.00000000000000	0.12154800000000	0.00000000000000	0.00000000000000	0.00000000000000	0.00000000000000	0.00000000000000	0.00000000000000	0.00000000000000	15.38626500000000	0.00000000000000	0.00000000000000	0.00000000000000	0.00000000000000	
9.80663200000000	11.75236100000000	703.96097699999996	35.92636200000000	0.25154500000000	0.00000000000000	0.12158700000000	0.00000000000000	0.00000000000000	0.00000000000000	0.00000000000000	0.00000000000000	0.00000000000000	0.00000000000000	15.53781800000000	0.00000000000000	0.00000000000000	0.00000000000000	0.00000000000000	
9.80829900000000	11.06911500000000	704.65040399999998	36.01175800000000	0.25040000000000	0.00000000000000	0.12162800000000	0.00000000000000	0.00000000000000	0.00000000000000	0.00000000000000	0.00000000000000	0.00000000000000	0.00000000000000	15.69357700000000	0.00000000000000	0.00000000000000	0.00000000000000	0.00000000000000	
9.80996800000000	10.36991200000000	705.37468600000000	36.10166400000000	0.24921800000000	0.00000000000000	0.12167200000000	0.00000000000000	0.00000000000000	0.00000000000000	0.00000000000000	0.00000000000000	0.00000000000000	0.00000000000000	15.85335100000000	0.00000000000000	0.00000000000000	0.00000000000000	0.00000000000000	
9.81163100000000	9.65501600000000	706.13465099999996	36.19580900000000	0.24800000000000	0.00000000000000	0.12171900000000	0.00000000000000	0.00000000000000	0.00000000000000	0.00000000000000	0.00000000000000	0.00000000000000	0.00000000000000	16.01694100000000	0.00000000000000	0.00000000000000	0.00000000000000	0.00000000000000	
9.81329700000000	8.92473500000000	706.93114700000001	36.29391400000000	0.24674800000000	0.00000000000000	0.12176700000000	0.00000000000000	0.00000000000000	0.00000000000000	0.00000000000000	0.00000000000000	0.00000000000000	0.00000000000000	16.18414900000000	0.00000000000000	0.00000000000000	0.00000000000000	0.00000000000000	
9.81496200000000	8.17941900000000	707.76503300000002	36.39569400000000	0.24546200000000	0.00000000000000	0.12181800000000	0.00000000000000	0.00000000000000	0.00000000000000	0.00000000000000	0.00000000000000	0.00000000000000	0.00000000000000	16.35476800000000	0.00000000000000	0.00000000000000	0.00000000000000	0.00000000000000	
9.81663100000000	7.41945900000000	708.63717499999996	36.50086000000000	0.24414400000000	0.00000000000000	0.12187100000000	0.00000000000000	0.00000000000000	0.00000000000000	0.00000000000000	0.00000000000000	0.00000000000000	0.00000000000000	16.52859000000000	0.00000000000000	0.00000000000000	0.00000000000000	0.00000000000000	
9.81830100000000	6.64528600000000	709.54843900000003	36.60911700000000	0.24279600000000	0.00000000000000	0.12192500000000	0.00000000000000	0.00000000000000	0.00000000000000	0.00000000000000	0.00000000000000	0.00000000000000	0.00000000000000	16.70540500000000	0.00000000000000	0.00000000000000	0.00000000000000	0.00000000000000	
9.81996700000000	5.85736900000000	710.49968400000000	36.72017000000000	0.24142000000000	0.00000000000000	0.12198100000000	0.00000000000000	0.00000000000000	0.00000000000000	0.00000000000000	0.00000000000000	0.00000000000000	0.00000000000000	16.88499700000000	0.00000000000000	0.00000000000000	0.00000000000000	0.00000000000000	
9.82163100000000	5.05621800000000	711.49175200000002	36.83371700000000	0.24001800000000	0.00000000000000	0.12203800000000	0.00000000000000	0.00000000000000	0.00000000000000	0.00000000000000	0.00000000000000	0.00000000000000	0.00000000000000	17.06715100000000	0.00000000000000	0.00000000000000	0.00000000000000	0.00000000000000	
